<svg width="108" height="107" viewBox="0 0 108 107" fill="none" xmlns="http://www.w3.org/2000/svg">
<circle cx="90.5" cy="90.5" r="10.5" fill="url(#paint0_linear_17_11)"/>
<circle cx="15.5" cy="90.5" r="10.5" fill="url(#paint1_linear_17_11)"/>
<circle cx="90.5" cy="15.5" r="10.5" fill="url(#paint2_linear_17_11)"/>
<circle cx="15.5" cy="15.5" r="10.5" fill="url(#paint3_linear_17_11)"/>
<path d="M8.08722 78.4305C22.0034 73.9437 31.4775 84.118 27.1502 97.3522C39.4724 103.381 54.5262 94.8918 56.9596 74.6165C50.6129 77.0597 44.2173 80.6019 37.3967 81.8856C27.9722 83.6594 22.241 76.9896 23.7008 67.4578C24.046 65.2038 24.6383 62.9877 25.1011 60.8281L14.6395 55.7038C8.45806 62.3278 6.48156 69.8023 8.08722 78.4305Z" fill="url(#paint4_linear_17_11)"/>
<path d="M27.7828 8.08722C32.2695 22.0034 22.0953 31.4775 8.8611 27.1502C2.83221 39.4724 11.3214 54.5262 31.5968 56.9596C29.1535 50.6129 25.6114 44.2173 24.3277 37.3967C22.5539 27.9722 29.2236 22.241 38.7555 23.7008C41.0094 24.046 43.2255 24.6383 45.3851 25.1011L50.5095 14.6395C43.8854 8.45806 36.411 6.48156 27.7828 8.08722Z" fill="url(#paint5_linear_17_11)"/>
<path d="M98.126 27.7829C84.2099 32.2696 74.7358 22.0954 79.063 8.86122C66.7409 2.83233 51.687 11.3216 49.2536 31.5969C55.6004 29.1537 61.996 25.6115 68.8166 24.3278C78.241 22.554 83.9723 29.2238 82.5124 38.7556C82.1672 41.0095 81.575 43.2256 81.1122 45.3852L91.5738 50.5096C97.7552 43.8855 99.7317 36.4111 98.126 27.7829Z" fill="url(#paint6_linear_17_11)"/>
<path d="M78.4304 98.1259C73.9436 84.2097 84.1178 74.7356 97.352 79.0629C103.381 66.7407 94.8917 51.6869 74.6164 49.2535C77.0596 55.6002 80.6018 61.9958 81.8855 68.8165C83.6592 78.2409 76.9895 83.9721 67.4576 82.5123C65.2037 82.1671 62.9876 81.5748 60.828 81.112L55.7037 91.5737C62.3277 97.7551 69.8022 99.7316 78.4304 98.1259Z" fill="url(#paint7_linear_17_11)"/>
<defs>
<linearGradient id="paint0_linear_17_11" x1="90.5" y1="80" x2="90.5" y2="101" gradientUnits="userSpaceOnUse">
<stop stop-color="#6EC2CA"/>
<stop offset="1" stop-color="#663D82"/>
</linearGradient>
<linearGradient id="paint1_linear_17_11" x1="15.5" y1="80" x2="15.5" y2="101" gradientUnits="userSpaceOnUse">
<stop stop-color="#A1386A"/>
<stop offset="1" stop-color="#D84067"/>
</linearGradient>
<linearGradient id="paint2_linear_17_11" x1="90.5" y1="5" x2="90.5" y2="26" gradientUnits="userSpaceOnUse">
<stop stop-color="#6BAA5D"/>
<stop offset="1" stop-color="#D7FD52"/>
</linearGradient>
<linearGradient id="paint3_linear_17_11" x1="15.5" y1="5" x2="15.5" y2="26" gradientUnits="userSpaceOnUse">
<stop stop-color="#E8545D"/>
<stop offset="1" stop-color="#FABC31"/>
</linearGradient>
<linearGradient id="paint4_linear_17_11" x1="13.1716" y1="57.1717" x2="49.0416" y2="93.0417" gradientUnits="userSpaceOnUse">
<stop stop-color="#A1386A"/>
<stop offset="1" stop-color="#D84067"/>
</linearGradient>
<linearGradient id="paint5_linear_17_11" x1="49.0416" y1="13.1716" x2="13.1715" y2="49.0416" gradientUnits="userSpaceOnUse">
<stop stop-color="#E8545D"/>
<stop offset="1" stop-color="#FABC31"/>
</linearGradient>
<linearGradient id="paint6_linear_17_11" x1="93.0417" y1="49.0417" x2="57.1716" y2="13.1717" gradientUnits="userSpaceOnUse">
<stop stop-color="#6BAA5D"/>
<stop offset="1" stop-color="#D7FD52"/>
</linearGradient>
<linearGradient id="paint7_linear_17_11" x1="57.1715" y1="93.0415" x2="93.0416" y2="57.1715" gradientUnits="userSpaceOnUse">
<stop stop-color="#663D82"/>
<stop offset="1" stop-color="#6EC2CA"/>
</linearGradient>
</defs>
</svg>
